<svg width="45" height="45" viewBox="0 0 45 45" fill="none" xmlns="http://www.w3.org/2000/svg">
<path d="M13.125 13.125H11.25C10.2554 13.125 9.30161 13.5201 8.59835 14.2233C7.89509 14.9266 7.5 15.8804 7.5 16.875V33.75C7.5 34.7446 7.89509 35.6984 8.59835 36.4016C9.30161 37.1049 10.2554 37.5 11.25 37.5H28.125C29.1196 37.5 30.0734 37.1049 30.7766 36.4016C31.4799 35.6984 31.875 34.7446 31.875 33.75V31.875" stroke="white" stroke-width="3.75" stroke-linecap="round" stroke-linejoin="round"/>
<path d="M30 9.3752L35.625 15.0002M38.2219 12.3471C38.9603 11.6086 39.3752 10.607 39.3752 9.5627C39.3752 8.51836 38.9603 7.51679 38.2219 6.77833C37.4834 6.03986 36.4818 5.625 35.4375 5.625C34.3932 5.625 33.3916 6.03986 32.6531 6.77833L16.875 22.5002V28.1252H22.5L38.2219 12.3471Z" stroke="white" stroke-width="3.75" stroke-linecap="round" stroke-linejoin="round"/>
</svg>
