<svg width="24" height="24" viewBox="0 0 24 24" fill="none" xmlns="http://www.w3.org/2000/svg">
<g clip-path="url(#clip0_10635_1499)">
<path d="M21.8887 12.2222C21.8887 17.7462 17.4111 22.2222 11.8887 22.2222C6.36621 22.2222 1.88867 17.7462 1.88867 12.2222C1.88867 6.70132 6.36621 2.22217 11.8887 2.22217C17.4111 2.22217 21.8887 6.70132 21.8887 12.2222ZM11.8887 14.2383C10.8643 14.2383 10.0338 15.0687 10.0338 16.0931C10.0338 17.1175 10.8643 17.948 11.8887 17.948C12.9131 17.948 13.7435 17.1175 13.7435 16.0931C13.7435 15.0687 12.9131 14.2383 11.8887 14.2383ZM10.1277 7.57112L10.4268 13.055C10.4408 13.3116 10.6529 13.5125 10.9099 13.5125H12.8674C13.1244 13.5125 13.3366 13.3116 13.3506 13.055L13.6497 7.57112C13.6648 7.29394 13.4441 7.06088 13.1665 7.06088H10.6108C10.3332 7.06088 10.1125 7.29394 10.1277 7.57112Z" fill="white"/>
</g>
<defs>
<clipPath id="clip0_10635_1499">
<rect width="20" height="20" fill="white" transform="translate(1.88867 2.22217)"/>
</clipPath>
</defs>
</svg>
