<svg width="24" height="24" viewBox="0 0 24 24" fill="none" xmlns="http://www.w3.org/2000/svg">
<g clip-path="url(#clip0_10635_1505)">
<path d="M22.9844 19.2938C23.6609 20.4664 22.8117 21.9322 21.4605 21.9322H3.87209C2.5183 21.9322 1.67305 20.4641 2.34824 19.2938L11.1426 4.04583C11.8194 2.87266 13.5146 2.87478 14.1903 4.04583L22.9844 19.2938ZM12.6664 16.1413C11.7353 16.1413 10.9804 16.8961 10.9804 17.8272C10.9804 18.7584 11.7353 19.5132 12.6664 19.5132C13.5975 19.5132 14.3524 18.7584 14.3524 17.8272C14.3524 16.8961 13.5975 16.1413 12.6664 16.1413ZM11.0657 10.0812L11.3376 15.0657C11.3503 15.299 11.5432 15.4816 11.7768 15.4816H13.556C13.7896 15.4816 13.9825 15.299 13.9952 15.0657L14.2671 10.0812C14.2808 9.82921 14.0802 9.61737 13.8279 9.61737H11.5049C11.2525 9.61737 11.052 9.82921 11.0657 10.0812Z" fill="white"/>
</g>
<defs>
<clipPath id="clip0_10635_1505">
<rect width="21.1111" height="18.7654" fill="white" transform="translate(2.11133 3.16675)"/>
</clipPath>
</defs>
</svg>
